<svg id="Layer_1" data-name="Layer 1" xmlns="http://www.w3.org/2000/svg" viewBox="0 0 1000 1000"><defs><style>.cls-1{fill:#4f8ae0;}.cls-2{fill:#3a3144;}.cls-3{fill:#2e60b8;}.cls-10,.cls-11,.cls-13,.cls-16,.cls-17,.cls-20,.cls-21,.cls-22,.cls-4,.cls-6{fill:none;stroke-miterlimit:10;}.cls-4{stroke:#cc8537;}.cls-13,.cls-16,.cls-20,.cls-21,.cls-22,.cls-4{stroke-width:25px;}.cls-5{fill:#ffa97f;}.cls-6{stroke:#3a3144;}.cls-10,.cls-6{stroke-width:40px;}.cls-7{fill:#71d2c1;}.cls-8{fill:#b2eee6;}.cls-9{fill:#385a7d;}.cls-10{stroke:#385a7d;}.cls-11,.cls-17{stroke:#71d2c1;}.cls-11{stroke-width:15.47px;}.cls-12{fill:#e8a54f;}.cls-13{stroke:#e8a54f;}.cls-14{fill:#f97171;}.cls-15{fill:#ffd8c5;}.cls-16{stroke:#4f8ae0;}.cls-17{stroke-width:18px;}.cls-18{fill:#fff;}.cls-19{fill:#1ca591;}.cls-20{stroke:#1ca591;}.cls-21{stroke:#f97171;}.cls-22{stroke:#fff;}</style></defs><title>Flat Illustration</title><path class="cls-1" d="M566.55,807.4a262.44,262.44,0,0,1-17-30.31c-2-4.14-3.89-8.71-2.88-13.19s6.36-8.16,10.28-5.78c-1.31-2.85-2.65-6-1.88-9s4.79-5.29,7.15-3.22c-1.13-1.92-2.19-4.16-1.6-6.3s3.7-3.52,5.13-1.81c-.48-2.69-2.19-5-3.59-7.31s-2.58-5.12-1.84-7.75,4.25-4.48,6.34-2.73c-2.49-3.28-5.11-7-4.78-11.1s5.5-7.72,8.67-5.07c0-3.81-1.71-7.38-3.11-10.92s-2.53-7.48-1.4-11.12,5.43-6.48,8.84-4.79l-1.47-14.81c-.18-1.78-.32-3.72.7-5.19s2.87-2,4.36-3c5.11-3.35,5.12-10.63,5.34-16.73.34-10,4.64-21.9,14.51-23.67,8.24-1.48,16.06,5.49,18.69,13.44s1.44,16.58.53,24.9-1.44,17.16,2.3,24.65c1.81,3.62,4.53,6.71,6.51,10.25,4.35,7.75,4.85,17.29,2.55,25.87s-7.24,16.28-13.14,22.92-13.23,13.93-11.5,22.54c2.14-5.49,11.27-4.84,14.1.32s.4,11.9-3.88,15.94c-1.2,1.14-2.65,2.33-2.77,4-.11,1.43.84,2.78.79,4.22-.07,1.94-1.87,3.31-3.53,4.33a98,98,0,0,1-20,9.44,6.9,6.9,0,0,1,12.44,5.08c-.53,3.26-3.22,5.64-5.34,8.17a27.77,27.77,0,0,0-6.18,13.88"/><path class="cls-2" d="M583.57,811.7c2-5.87-1.2-12.09-3.48-17.88-1.38-3.51-2.38-7.61-.6-10.93s7.52-4.25,9.08-.82c-.45-1.86-.62-4.09.76-5.42s4.45,0,3.72,1.74a5,5,0,1,1,9.76-.4c-.69-3.48,3.69-5.41,6.75-7.19,9.32-5.43,10.46-18.37,16.84-27.06a25.34,25.34,0,0,1,8-7.11c4-2.26,9.58-3.17,12.87,0a10.83,10.83,0,0,1,2.65,5.4c1.94,8.48-.72,17.48-5.35,24.85s-11.08,13.37-17.45,19.28c.57-2.34,3.71-3.51,5.8-2.31a4.85,4.85,0,0,1,1.59,6.34,6,6,0,0,1-6.2,2.73c1.81-1.51,4.87.47,4.9,2.83s-2,4.29-4.24,5.07-4.64.73-7,1a25.86,25.86,0,0,0-18.08,10.73"/><path class="cls-3" d="M544.4,816.58c-4.94-13-19.34-19.2-30.4-27.67-2.07-1.59-4.22-3.63-4.22-6.24s3.78-4.72,5.28-2.59c-1.53-1.43-2.8-3.52-2.23-5.53s3.83-2.91,4.76-1l-7.41-8.93c-1-1.16-2-2.49-1.86-4s2.19-2.72,3.19-1.59a6.13,6.13,0,0,1,2.84-5.31,8.47,8.47,0,0,1,2.73-15.2c-1.58-2.28-3.2-4.65-3.68-7.38s.5-5.92,3-7.15a70,70,0,0,1-9.07-19.69c-1.09-3.86-1.84-8-.6-11.84s5-7.07,9-6.42c2.78.45,4.95,2.61,6.76,4.77A65.29,65.29,0,0,1,537,723.22c2.53-1.88,6.41-.05,7.79,2.78s1,6.16.58,9.28a11.77,11.77,0,0,1,1.09,13.45c.22-3.31,5.1-4.72,7.63-2.57s2.61,6.23,1,9.13c.7-2.08,3.82-2.37,5.53-1s2.29,3.7,2.61,5.88c1.6,10.88-.9,22.12,1.19,32.92,1.56,8.06,5.59,15.39,9.56,22.58l-1.17-1.79"/><path class="cls-4" d="M300.81,677.94s-6.52,8.14-10,35.62"/><path class="cls-5" d="M433.51,812.05l13.25,36.61h40.18s-.23-9.12-7.48-11.3c-10.11-3-11.09-4.13-18-34.43"/><path class="cls-5" d="M378.34,808.47l4.24,40.19h40.18s-.23-9.12-7.48-11.3c-10.11-3-3.95-4.13-10.87-34.43"/><path class="cls-6" d="M393,812.05s-6.4-79.84-17.22-78.67c-7.49.81-23.2,13.07-32.15,20.54a36.94,36.94,0,0,1-23.85,8.77,24.31,24.31,0,0,1-12.22-3"/><path class="cls-7" d="M362.66,727.71l-12.42-15.85s18.15-15.19,25.35-5.16S362.66,727.71,362.66,727.71Z"/><path class="cls-7" d="M362.71,697.28,353.76,711c-1.37,2.09,2,4,3.34,2L366,699.23c1.37-2.09-2-4-3.33-2Z"/><path class="cls-7" d="M380.8,715.13q-6.1,2.22-12.07,4.81c-1.71.74-.23,3.24,1.46,2.51q5.63-2.44,11.38-4.52c1.74-.64,1-3.44-.77-2.8Z"/><path class="cls-7" d="M382.68,708.05a37.52,37.52,0,0,1-9.62,4.44c-1.79.53-1,3.33.77,2.79a40.5,40.5,0,0,0,10.32-4.72c1.56-1,.11-3.52-1.47-2.51Z"/><path class="cls-7" d="M373.78,709.45a79.22,79.22,0,0,0,9.68-5.23c1.57-1,.12-3.51-1.47-2.5a79.72,79.72,0,0,1-9.67,5.23c-1.7.77-.22,3.27,1.46,2.5Z"/><path class="cls-7" d="M377.8,696.3c-4.19,4.09-9.77,6.46-15.12,8.63-1.7.69-1,3.5.77,2.79,5.83-2.36,11.84-4.91,16.4-9.37,1.34-1.31-.71-3.36-2.05-2.05Z"/><path class="cls-4" d="M290.82,713.56s26.78,24.65,68.19,0"/><polygon class="cls-1" points="479.69 657.56 416.64 657.56 402.48 709.03 465.53 709.03 479.69 657.56"/><polygon class="cls-3" points="341.31 709.03 339.72 714.82 400.89 714.82 402.48 709.03 341.31 709.03"/><polygon class="cls-2" points="402.48 709.03 400.89 714.82 463.93 714.82 465.53 709.03 402.48 709.03"/><path class="cls-8" d="M382.4,581.07l-16.87,28.44a5.52,5.52,0,0,1-9.49,0l-16.87-28.44,21.62-21.61Z"/><path class="cls-7" d="M332,647.8s1.79-1.14,2.31,0-1.39,3.15-1.39,3.15"/><circle class="cls-9" cx="315.57" cy="733.38" r="27.56"/><path class="cls-10" d="M449.15,813.47s-21.61-64.8-34.64-76.53-81.95,23.43-81.95,23.43-11.13,4.26-25-3.16"/><line class="cls-11" x1="320.05" y1="651.53" x2="317.63" y2="667.84"/><path class="cls-12" d="M351,691.24A24.18,24.18,0,0,0,349.4,677c-2.84-6.28-7.54-10.1-15.93-10.34l-30.82-.89c-11.87-.34-9.42,3.95-10.31,15.36-.18,2.17-3-4.85-2.77-2.67l6,31.23c.51,5.41-10,4.06-10.8,9.44l-.55,3.87a24.75,24.75,0,0,0-.23,4.55c.11,2.4.68,2.15,4.69,2.23h0c9.94,6.62,14.93,9.68,26.87,10.1,25.18.88,34.4-11,34.71-12.1a2.56,2.56,0,0,0,0-1h0a110.35,110.35,0,0,1,0-31.33C350.53,693.9,350.76,692.52,351,691.24Z"/><path class="cls-7" d="M321,629.07h.68a11.55,11.55,0,0,1,11.55,11.55v11.52a7.81,7.81,0,0,1-7.81,7.81h0a16,16,0,0,1-16-16v-3.36A11.55,11.55,0,0,1,321,629.07Z" transform="translate(-39.16 21.05) rotate(-3.54)"/><path class="cls-7" d="M401.32,651.37l-19.91-3s2.8-23.5,14.92-21.13S401.32,651.37,401.32,651.37Z"/><path class="cls-7" d="M380.51,629.26l2.89,16.13c.44,2.44,4.17,1.41,3.73-1l-2.89-16.13c-.44-2.44-4.17-1.41-3.73,1Z"/><path class="cls-7" d="M405.89,629.79q-2.85,5.64-5.34,11.44c-.73,1.7,1.77,3.18,2.5,1.46q2.51-5.79,5.34-11.43c.84-1.66-1.66-3.13-2.5-1.47Z"/><path class="cls-7" d="M402.41,623.36a37.9,37.9,0,0,1-4,9.82,1.45,1.45,0,0,0,2.5,1.46,40.73,40.73,0,0,0,4.27-10.51c.45-1.81-2.34-2.59-2.8-.77Z"/><path class="cls-7" d="M396.91,630.42A79.25,79.25,0,0,0,400.36,620c.47-1.8-2.33-2.58-2.79-.77a80.8,80.8,0,0,1-3.46,10.44c-.71,1.73,2.1,2.48,2.8.77Z"/><path class="cls-7" d="M390.81,618.16c-.26,5.85-2.71,11.39-5.11,16.63-.77,1.68,1.73,3.16,2.51,1.46,2.62-5.73,5.22-11.7,5.5-18.09.08-1.86-2.82-1.86-2.9,0Z"/><path class="cls-1" d="M379,848.66a20.78,20.78,0,0,0,20.88-20.44V828c0-17.52-14.26-33.21-36.73-43.72a38.78,38.78,0,0,1-21.22-26.41c-9.52-41.16-44.24-71.68-85.61-71.68-48.72,0-88.21,42.3-88.21,94.47a99.75,99.75,0,0,0,7.72,38.69,47.81,47.81,0,0,0,44.08,29.31Z"/><rect class="cls-8" x="310.54" y="440.67" width="241.09" height="152.07" rx="12.71"/><path class="cls-1" d="M439.18,574.81l-2.67,17.93H499.1S497,571.22,490.85,566"/><path class="cls-13" d="M337.46,680.44s39.26,15.77,44.75,7.49S393,644.51,393,644.51"/><path class="cls-2" d="M329.05,644.43a.15.15,0,0,1-.19,0c-.36-.35-1.72-1.49-2.75.09a2.64,2.64,0,0,0,.76,3.67,2.05,2.05,0,0,1,1,1.51c.27,2.94.39,10.56-5,14-6.73,4.35-3.66,12.27-1.56,17.92a14.35,14.35,0,0,1-2.56,13.8,4.72,4.72,0,0,1-5.36,1.52l-26.29-10a4.09,4.09,0,0,1-2.61-4.44c.85-5.63,3.47-17.13,11.12-24.06,10-9,3.51-26.75,20.64-29a19.91,19.91,0,0,0,4-.89,10.81,10.81,0,0,1,10.74,2.62,11.86,11.86,0,0,1,3.13,5c.14.45,1.29,4.69.83,4.93l-2.45,1.25a1,1,0,0,1-1.27-.43l-1-2.21.65,3.37Z"/><line class="cls-11" x1="463.03" y1="501.2" x2="465.45" y2="517.51"/><path class="cls-2" d="M467.39,503.76a16,16,0,0,1-10.47,8.78l-1.52-9S469.61,498.63,467.39,503.76Z"/><path class="cls-14" d="M498.84,572.64l-.55-3.87a70.76,70.76,0,0,1-.38-16.26l1-10.43a37.59,37.59,0,0,0,.1-6.54c-.89-11.4-6.69-20.48-18.56-20.14l-30.82.89c-8.4.24-13.1,4.07-15.94,10.36a20.74,20.74,0,0,0-1.71,9c.41,15.8.64,27.42.75,35.85a7.53,7.53,0,0,0,7.47,7.43l54.2.45c4-.08,4.58.18,4.69-2.23A24.6,24.6,0,0,0,498.84,572.64Z"/><path class="cls-2" d="M451,485.29l-1.1,6.33c-1.58.07-.62-6.59-.62-6.59"/><path class="cls-7" d="M464,478.13h0a9.58,9.58,0,0,1,9.58,9.58v9.75A11.55,11.55,0,0,1,462,509h-.68a11.55,11.55,0,0,1-11.55-11.55v-5.13A14.19,14.19,0,0,1,464,478.13Z" transform="matrix(-1, -0.1, 0.1, -1, 873.73, 1029.27)"/><path class="cls-7" d="M446.87,494c.27,2.47,3.16,5.59,6,4.7l1.14-6.11c-.09-.45-4.82-1.34-5.19-1.27A2.25,2.25,0,0,0,446.87,494Z"/><path class="cls-2" d="M465.73,482.64c0-.3-6.74,5.69-15.7,4.59-7.52-.92,8-14,17.59-7.79,0,0,6.44,2.17,6.76,8.6s-2.05,8.6-2.05,8.6l-1-2.94v-2.91A8.72,8.72,0,0,1,465.73,482.64Z"/><path class="cls-2" d="M459.13,498.69a1.66,1.66,0,0,0-2.67-.11c-.38.48.3,1.17.68.68a.71.71,0,0,1,1.16-.08c.38.48,1.22,0,.83-.49Z"/><path class="cls-2" d="M461.06,500.5a5.09,5.09,0,0,1-2.8,1.33c-.61.09-.35,1,.26.93a6,6,0,0,0,3.23-1.58c.45-.42-.23-1.1-.69-.68Z"/><circle class="cls-2" cx="463.58" cy="496.83" r="0.86"/><path class="cls-2" d="M464.43,492.18a7.45,7.45,0,0,0-1.63-.16.48.48,0,0,0,0,1,6.39,6.39,0,0,1,1.38.13c.6.13.86-.81.25-.93Z"/><circle class="cls-2" cx="453.76" cy="496.34" r="0.86"/><path class="cls-2" d="M454.62,491.69a7.48,7.48,0,0,0-1.64-.16.49.49,0,0,0,0,1,6.38,6.38,0,0,1,1.38.12c.61.13.87-.8.26-.93Z"/><path class="cls-7" d="M476.65,494.33c-.28,2.48-3.17,5.59-6,4.7l-1.13-6.1c.08-.46,4.81-1.35,5.18-1.28A2.26,2.26,0,0,1,476.65,494.33Z"/><path class="cls-15" d="M662.68,499.56,645.8,528a5.52,5.52,0,0,1-9.49,0l-16.87-28.44L641.06,478Z"/><rect class="cls-15" x="590.81" y="359.16" width="241.09" height="152.07" rx="12.71"/><path class="cls-7" d="M746.64,516.86l-16.82-11.07s-13.65,19.33-3.06,25.68S746.64,516.86,746.64,516.86Z"/><path class="cls-7" d="M718.79,522.36l12.94-10.05c2-1.52-.79-4.24-2.73-2.73l-13,10c-2,1.53.79,4.24,2.74,2.74Z"/><path class="cls-7" d="M738.41,536.63q1.65-6.09,3.69-12.07c.6-1.77-2.2-2.53-2.8-.77q-2,6-3.69,12.07a1.45,1.45,0,0,0,2.8.77Z"/><path class="cls-7" d="M731.24,539.79a40.48,40.48,0,0,0,3.9-10.66c.39-1.82-2.41-2.6-2.8-.77a37.78,37.78,0,0,1-3.6,10c-.87,1.64,1.63,3.11,2.5,1.46Z"/><path class="cls-7" d="M726.64,528.44a77,77,0,0,1-4.27,9.72c-.87,1.65,1.64,3.12,2.5,1.46a82.33,82.33,0,0,0,4.57-10.41c.63-1.76-2.17-2.52-2.8-.77Z"/><path class="cls-7" d="M718.7,536.49c4.07-4.92,6.17-11.07,8-17.08.56-1.78-2.24-2.55-2.79-.77-1.73,5.5-3.58,11.3-7.31,15.8-1.18,1.43.86,3.49,2.05,2Z"/><path class="cls-2" d="M674.42,404.17a26,26,0,0,0-.51,21.29c3.41,8.06,1,12.84,1,12.84l36.42,2.17s2-13.36-3.26-18.86c-5.86-6.13-8-16.7-8-16.7"/><path class="cls-2" d="M665.11,493.3l-2.67,17.93H725s-2-21.52-8.24-26.73"/><line class="cls-11" x1="688.96" y1="419.69" x2="691.38" y2="436"/><path class="cls-2" d="M693.32,422.25A16,16,0,0,1,682.85,431l-1.52-9S695.54,417.12,693.32,422.25Z"/><path class="cls-1" d="M724.77,491.13l-.55-3.87a70.2,70.2,0,0,1-.38-16.26l1-10.43a38.6,38.6,0,0,0,.1-6.54c-.9-11.4-6.69-20.48-18.56-20.14l-30.82.89c-8.4.24-13.1,4.07-15.94,10.36a20.71,20.71,0,0,0-1.71,9c.39,15.05.62,26.31.73,34.62a8.8,8.8,0,0,0,8.72,8.67l53,.44c4-.08,4.58.18,4.7-2.23A24.6,24.6,0,0,0,724.77,491.13Z"/><path class="cls-16" d="M707.32,443.91s35.57,25.63,38.61,36.49-10.75,36.49-10.75,36.49"/><path class="cls-2" d="M677,403.78l-1.1,6.33c-1.58.07-.62-6.59-.62-6.59"/><path class="cls-7" d="M689.91,396.62h0a9.58,9.58,0,0,1,9.58,9.58v9.75a11.55,11.55,0,0,1-11.55,11.55h-.68a11.55,11.55,0,0,1-11.55-11.55v-5.13a14.19,14.19,0,0,1,14.19-14.19Z" transform="translate(1332.38 888.36) rotate(-174.48)"/><path class="cls-7" d="M672.79,412.45c.28,2.47,3.17,5.59,6,4.7L680,411c-.09-.45-4.82-1.34-5.19-1.27A2.26,2.26,0,0,0,672.79,412.45Z"/><path class="cls-2" d="M691.66,401.13c0-.3-6.74,5.69-15.7,4.59-7.52-.92,8-14,17.59-7.79,0,0,6.44,2.17,6.75,8.6s-2,8.6-2,8.6l-1-2.94v-2.91A8.72,8.72,0,0,1,691.66,401.13Z"/><path class="cls-2" d="M685.06,417.18a1.66,1.66,0,0,0-2.67-.11c-.38.48.29,1.17.68.68a.71.71,0,0,1,1.16-.08c.37.48,1.21,0,.83-.49Z"/><path class="cls-2" d="M687,419a5.09,5.09,0,0,1-2.8,1.33c-.61.09-.35,1,.26.93a6,6,0,0,0,3.23-1.58c.45-.42-.23-1.1-.69-.68Z"/><circle class="cls-2" cx="689.51" cy="415.31" r="0.86"/><path class="cls-2" d="M690.36,410.67a6.88,6.88,0,0,0-1.63-.16.48.48,0,0,0,0,1,6.24,6.24,0,0,1,1.37.13c.61.13.87-.81.26-.93Z"/><circle class="cls-2" cx="679.69" cy="414.83" r="0.86"/><path class="cls-2" d="M680.54,410.18a7.45,7.45,0,0,0-1.63-.16.49.49,0,0,0,0,1,6.38,6.38,0,0,1,1.38.12c.6.13.86-.8.25-.93Z"/><path class="cls-7" d="M702.58,412.82c-.28,2.48-3.17,5.59-6,4.7l-1.13-6.1c.08-.46,4.81-1.35,5.18-1.28A2.26,2.26,0,0,1,702.58,412.82Z"/><path class="cls-8" d="M614,296.56,597.13,325a5.52,5.52,0,0,1-9.5,0l-16.87-28.43,21.62-21.62Z"/><rect class="cls-8" x="542.13" y="156.15" width="241.09" height="152.07" rx="12.71"/><path class="cls-14" d="M657.83,290.29l-2.67,17.93h62.59s-2.06-21.51-8.25-26.73"/><line class="cls-17" x1="681.68" y1="215.69" x2="682.89" y2="235"/><path class="cls-2" d="M686,218.24A15.93,15.93,0,0,1,675.57,227L674.05,218S688.26,213.11,686,218.24Z"/><path class="cls-18" d="M717.49,288.12l-.55-3.87a70.67,70.67,0,0,1-.38-16.25l1-10.43a37.62,37.62,0,0,0,.1-6.54c-.9-11.41-6.69-20.48-18.56-20.14l-30.82.88c-8.4.24-13.1,4.08-15.94,10.37a20.67,20.67,0,0,0-1.71,9c.4,15.42.63,26.86.74,35.24a8.17,8.17,0,0,0,8.09,8.05l53.59.45c4-.08,4.58.17,4.69-2.23A24.75,24.75,0,0,0,717.49,288.12Z"/><path class="cls-2" d="M669.68,199.78l-1.1,6.33c-1.58.07-.62-6.6-.62-6.6"/><path class="cls-7" d="M682.64,192.62h0a9.58,9.58,0,0,1,9.58,9.58v9.75a11.55,11.55,0,0,1-11.55,11.55H680a11.55,11.55,0,0,1-11.55-11.55v-5.13a14.19,14.19,0,0,1,14.19-14.19Z" transform="translate(1337.48 480.6) rotate(-174.48)"/><path class="cls-7" d="M665.52,208.44c.27,2.48,3.16,5.59,6,4.7l1.14-6.1c-.09-.46-4.82-1.35-5.19-1.28A2.25,2.25,0,0,0,665.52,208.44Z"/><path class="cls-7" d="M695.3,208.81c-.28,2.48-3.17,5.6-6,4.71l-1.13-6.11c.08-.45,4.81-1.35,5.18-1.27A2.24,2.24,0,0,1,695.3,208.81Z"/><path class="cls-2" d="M669.48,200.93s-2.05,12.87.2,14c1.54.78.76-1.52,6.44-.6,2.41.39,3.67-.89,6.11.66,8.84,5.61,5.9-13.91,5.9-13.91l3.6,2.93s2.87,18.49-7,23.46c-7.44,3.74-19.28.6-18.78-9.21.67-13.31,2-17.67,2-17.67"/><path class="cls-2" d="M684.38,197.13c0-.31-6.74,5.68-15.7,4.58-7.52-.91,8-14,17.59-7.79,0,0,6.44,2.17,6.76,8.61s-2,8.59-2,8.59l-.35-2.24.11-2.77S684.61,203.56,684.38,197.13Z"/><path class="cls-2" d="M677.78,213.17a1.66,1.66,0,0,0-2.67-.1c-.38.48.3,1.17.68.68a.71.71,0,0,1,1.16-.09c.37.49,1.21,0,.83-.49Z"/><path class="cls-18" d="M679.71,215a5.09,5.09,0,0,1-2.8,1.33c-.61.09-.35,1,.26.93a6,6,0,0,0,3.23-1.57c.45-.43-.23-1.11-.69-.69Z"/><circle class="cls-2" cx="682.23" cy="211.31" r="0.86"/><path class="cls-2" d="M683.08,206.66a7.45,7.45,0,0,0-1.63-.16.49.49,0,0,0,0,1,6.24,6.24,0,0,1,1.37.12c.61.13.87-.8.26-.93Z"/><circle class="cls-2" cx="672.41" cy="210.82" r="0.86"/><path class="cls-2" d="M673.27,206.18a7.49,7.49,0,0,0-1.64-.17.49.49,0,0,0,0,1,5.82,5.82,0,0,1,1.38.13c.61.12.87-.81.26-.93Z"/><path class="cls-15" d="M334.28,380.77l-16.87,28.44a5.52,5.52,0,0,1-9.49,0l-16.87-28.44,21.61-21.61Z"/><rect class="cls-15" x="262.42" y="240.37" width="241.09" height="152.07" rx="12.71"/><path class="cls-7" d="M324.4,268.7l19.29,5.78S351.22,252,339.25,249,324.4,268.7,324.4,268.7Z"/><path class="cls-7" d="M349.53,255.38,340,268.72c-1.45,2,1.91,4,3.34,1.95l9.51-13.34c1.45-2-1.9-4-3.34-1.95Z"/><path class="cls-7" d="M326.61,247.37q.15,6.31-.07,12.62c-.07,1.86,2.83,1.86,2.9,0q.22-6.31.07-12.62c-.05-1.87-2.95-1.87-2.9,0Z"/><path class="cls-7" d="M332.57,242.27a41.49,41.49,0,0,0-.68,11.34c.15,1.85,3.05,1.87,2.9,0a38.55,38.55,0,0,1,.58-10.56c.36-1.83-2.44-2.61-2.8-.78Z"/><path class="cls-7" d="M340.23,251.9a77.84,77.84,0,0,1,1.29-10.53c.35-1.82-2.44-2.6-2.8-.77a84.24,84.24,0,0,0-1.39,11.3c-.1,1.87,2.8,1.86,2.9,0Z"/><path class="cls-7" d="M345.55,241.83c-2.49,5.9-2.75,12.37-2.83,18.69a1.45,1.45,0,0,0,2.9,0c.07-5.75.16-11.85,2.43-17.23.72-1.7-1.78-3.17-2.5-1.46Z"/><path class="cls-7" d="M371.49,541.13l17.26-10.37s-11.53-20.68-21.83-13.87S371.49,541.13,371.49,541.13Z"/><path class="cls-7" d="M378.54,513.52l3.46,16c.53,2.43,4.25,1.4,3.73-1l-3.46-16c-.52-2.43-4.25-1.4-3.73,1Z"/><path class="cls-7" d="M357.15,525.09q4.78,4.13,9.29,8.55c1.33,1.3,3.39-.74,2.05-2Q364,527.17,359.2,523c-1.4-1.22-3.46.83-2.05,2.05Z"/><path class="cls-7" d="M357.43,517.25a40.87,40.87,0,0,0,8.19,8.37c1.48,1.13,2.93-1.39,1.47-2.51a36.26,36.26,0,0,1-7.16-7.32c-1.09-1.49-3.61,0-2.5,1.46Z"/><path class="cls-7" d="M369.78,518.17a76.9,76.9,0,0,1-6.94-8c-1.11-1.48-3.62,0-2.51,1.46a82.27,82.27,0,0,0,7.4,8.64c1.31,1.33,3.36-.72,2-2.05Z"/><path class="cls-7" d="M366,507.7c2.62,5.66,7.24,10.14,11.73,14.33,1.36,1.27,3.42-.77,2-2-4.33-4-8.75-8.29-11.27-13.74-.79-1.69-3.29-.22-2.51,1.46Z"/><path class="cls-7" d="M633.15,357.16l20,2.4s3.58-23.4-8.73-24.35S633.15,357.16,633.15,357.16Z"/><path class="cls-7" d="M655.78,339.44l-7.09,14.77c-1.07,2.23,2.26,4.2,3.34,2l7.09-14.77c1.07-2.23-2.26-4.19-3.34-1.95Z"/><path class="cls-7" d="M631.71,335.9q1.23,6.19,2.09,12.45c.25,1.84,3.05,1.06,2.8-.77q-.86-6.25-2.09-12.45c-.37-1.83-3.16-1.05-2.8.77Z"/><path class="cls-7" d="M636.68,329.87A41,41,0,0,0,638,341.16a1.45,1.45,0,0,0,2.79-.78,38.39,38.39,0,0,1-1.2-10.51c0-1.87-2.85-1.87-2.9,0Z"/><path class="cls-7" d="M645.9,338.16a80.75,80.75,0,0,1-.54-11,1.45,1.45,0,0,0-2.9,0,80.75,80.75,0,0,0,.54,11c.22,1.83,3.12,1.85,2.9,0Z"/><path class="cls-7" d="M649.36,327.2c-1.44,6.23-.53,12.68.47,18.9.3,1.84,3.09,1.06,2.8-.77-.92-5.68-1.79-11.67-.48-17.36.42-1.82-2.37-2.6-2.79-.77Z"/><path class="cls-7" d="M581.62,213.65l16.19-12S584.35,182.2,574.75,190,581.62,213.65,581.62,213.65Z"/><path class="cls-7" d="M585.94,185.31l5,15.61c.76,2.36,4.49,1.35,3.73-1l-5-15.61c-.75-2.36-4.48-1.35-3.72,1Z"/><path class="cls-7" d="M566,199.19q5,3.56,9.77,7.39c1.44,1.16,3.51-.88,2.05-2.05q-5.05-4.08-10.35-7.84c-1.53-1.08-3,1.43-1.47,2.5Z"/><path class="cls-7" d="M565.48,191.41a40.17,40.17,0,0,0,8.69,7.29c1.59,1,3.05-1.51,1.47-2.5a37.13,37.13,0,0,1-8.1-6.84c-1.25-1.39-3.3.66-2.06,2Z"/><path class="cls-7" d="M577.82,191.05a78.25,78.25,0,0,1-7.94-7.62c-1.25-1.38-3.3.67-2,2a78.25,78.25,0,0,0,7.94,7.62c1.42,1.19,3.48-.85,2.05-2Z"/><path class="cls-7" d="M572.87,180.79c3.22,5.51,8.33,9.55,13.31,13.38,1.48,1.14,2.93-1.38,1.47-2.5-4.58-3.52-9.32-7.29-12.28-12.35a1.45,1.45,0,0,0-2.5,1.47Z"/><path class="cls-7" d="M501,286.7,484,275.77s12.19-20.29,22.27-13.16S501,286.7,501,286.7Z"/><path class="cls-7" d="M491.08,257.78l-4,15.9c-.61,2.41,3.12,3.44,3.73,1l4-15.89c.6-2.41-3.13-3.44-3.73-1Z"/><path class="cls-7" d="M513.78,269q-4.9,4-9.56,8.25c-1.37,1.26.68,3.31,2,2q4.65-4.27,9.56-8.25c1.45-1.17-.61-3.21-2.05-2Z"/><path class="cls-7" d="M513.52,261.49a37.49,37.49,0,0,1-7.63,7.36c-1.5,1.08-.06,3.6,1.46,2.5a39.81,39.81,0,0,0,8.22-7.81c1.14-1.45-.9-3.52-2.05-2.05Z"/><path class="cls-7" d="M505.42,265.88a79.28,79.28,0,0,0,7.43-8.11c1.15-1.44-.89-3.51-2.05-2a79.28,79.28,0,0,1-7.43,8.11c-1.36,1.29.7,3.34,2.05,2.05Z"/><path class="cls-7" d="M505,252c-2.69,5.36-7.27,9.47-11.72,13.36-1.41,1.23.65,3.28,2.05,2.05,4.63-4.05,9.37-8.37,12.18-14,.83-1.66-1.67-3.13-2.51-1.46Z"/><path class="cls-7" d="M513.63,440,496.46,450.5s-13-19.77-2.23-25.77S513.63,440,513.63,440Z"/><path class="cls-7" d="M483.19,436.27l12.61,10.46c1.91,1.58,4.66-1.14,2.74-2.73l-12.61-10.46c-1.9-1.58-4.65,1.14-2.74,2.73Z"/><path class="cls-7" d="M503.24,420.68q1.45,6.13,3.29,12.18c.54,1.78,3.34,1,2.8-.77q-1.83-6-3.3-12.19c-.43-1.81-3.22-1-2.79.78Z"/><path class="cls-7" d="M496.46,418a37.83,37.83,0,0,1,3.27,10.09c.33,1.83,3.12,1.05,2.79-.77A40.49,40.49,0,0,0,499,416.52c-.82-1.67-3.32-.21-2.51,1.46Z"/><path class="cls-7" d="M496.83,427a82.1,82.1,0,0,0-4.24-10.55c-.81-1.68-3.31-.21-2.5,1.46a77.18,77.18,0,0,1,3.94,9.87c.58,1.76,3.38,1,2.8-.78Z"/><path class="cls-7" d="M484.26,421.47c3.58,4.61,5.23,10.5,6.77,16a1.45,1.45,0,0,0,2.8-.77c-1.69-6.08-3.6-12.27-7.52-17.32-1.14-1.48-3.18.59-2.05,2.05Z"/><path class="cls-7" d="M769.85,185.43l-19.36-5.55s5.79-22.95,17.5-19S769.85,185.43,769.85,185.43Z"/><path class="cls-7" d="M752,160.57l.8,16.36c.12,2.48,4,2.5,3.86,0l-.8-16.36c-.12-2.48-4-2.49-3.86,0Z"/><path class="cls-7" d="M777,164.77q-3.54,5.23-6.76,10.66a1.46,1.46,0,0,0,2.51,1.47q3.21-5.44,6.76-10.66c1.05-1.55-1.47-3-2.51-1.47Z"/><path class="cls-7" d="M774.46,158a38.06,38.06,0,0,1-5.24,9.22c-1.13,1.48,1.38,2.92,2.5,1.46a40.46,40.46,0,0,0,5.54-9.9c.68-1.74-2.13-2.5-2.8-.78Z"/><path class="cls-7" d="M768.07,164.27A83.2,83.2,0,0,0,773,154c.69-1.74-2.11-2.49-2.79-.77a78.62,78.62,0,0,1-4.62,9.56,1.45,1.45,0,0,0,2.5,1.47Z"/><path class="cls-7" d="M763.72,151c-1,5.92-4.2,11.17-7.34,16.19-1,1.59,1.52,3,2.51,1.46,3.25-5.21,6.56-10.73,7.62-16.87.32-1.83-2.47-2.61-2.79-.78Z"/><circle class="cls-2" cx="413.63" cy="296.9" r="12.75"/><path class="cls-12" d="M376.13,374.51l-2.67,17.93h62.59s-2.05-21.52-8.24-26.73"/><line class="cls-11" x1="399.98" y1="300.9" x2="402.41" y2="317.21"/><path class="cls-2" d="M404.34,303.46a15.94,15.94,0,0,1-10.47,8.77l-1.52-9S406.56,298.33,404.34,303.46Z"/><path class="cls-19" d="M435.79,372.34l-.54-3.87a69.65,69.65,0,0,1-.38-16.26l1-10.43a37.59,37.59,0,0,0,.11-6.54c-.9-11.4-6.7-20.48-18.56-20.14l-30.83.89c-8.4.24-13.1,4.07-15.94,10.36a20.7,20.7,0,0,0-1.7,9c.45,17.57.69,30,.77,38.56a4.74,4.74,0,0,0,4.7,4.69l56.94.48c4-.08,4.58.18,4.7-2.23A24.6,24.6,0,0,0,435.79,372.34Z"/><path class="cls-2" d="M388,285l-1.11,6.33c-1.58.07-.61-6.59-.61-6.59"/><path class="cls-7" d="M400.94,277.83h0a9.58,9.58,0,0,1,9.58,9.58v9.75A11.55,11.55,0,0,1,399,308.7h-.68a11.55,11.55,0,0,1-11.55-11.55V292a14.19,14.19,0,0,1,14.19-14.19Z" transform="translate(767.2 623.53) rotate(-174.48)"/><path class="cls-7" d="M383.82,293.66c.28,2.47,3.17,5.59,6,4.7l1.13-6.11c-.08-.45-4.81-1.34-5.18-1.27A2.25,2.25,0,0,0,383.82,293.66Z"/><path class="cls-2" d="M402.69,282.34c0-.3-6.74,5.69-15.71,4.59-7.51-.92,8-14,17.6-7.79,0,0,6.44,2.17,6.75,8.6s-2.05,8.6-2.05,8.6l-1-2.94v-2.91A8.7,8.7,0,0,1,402.69,282.34Z"/><path class="cls-2" d="M396.09,298.39a1.67,1.67,0,0,0-2.68-.11c-.38.48.3,1.17.69.68a.7.7,0,0,1,1.15-.08c.38.48,1.22,0,.84-.49Z"/><path class="cls-2" d="M398,300.2a5,5,0,0,1-2.8,1.32c-.62.1-.35,1,.25.94a6,6,0,0,0,3.23-1.58c.46-.42-.23-1.1-.68-.68Z"/><circle class="cls-2" cx="400.53" cy="296.52" r="0.86"/><path class="cls-2" d="M401.39,291.88a6.88,6.88,0,0,0-1.63-.16.48.48,0,0,0,0,1,6.36,6.36,0,0,1,1.37.13c.61.12.87-.81.26-.93Z"/><circle class="cls-2" cx="390.72" cy="296.04" r="0.86"/><path class="cls-2" d="M391.57,291.39a7.45,7.45,0,0,0-1.63-.16.49.49,0,0,0,0,1,6.29,6.29,0,0,1,1.37.12c.61.13.87-.8.26-.93Z"/><path class="cls-7" d="M413.61,294c-.28,2.48-3.17,5.59-6,4.7l-1.14-6.1c.09-.46,4.82-1.35,5.19-1.28A2.26,2.26,0,0,1,413.61,294Z"/><path class="cls-8" d="M436.85,669H426.16a1.43,1.43,0,0,0-1.39,1.06l-2.28,8.28a1.45,1.45,0,0,0,1.39,1.83h10.69a1.45,1.45,0,0,0,1.39-1.06l2.28-8.29A1.44,1.44,0,0,0,436.85,669Z"/><path class="cls-8" d="M460.52,669H449.84a1.43,1.43,0,0,0-1.39,1.06l-2.28,8.28a1.45,1.45,0,0,0,1.39,1.83h10.69a1.44,1.44,0,0,0,1.38-1.06l2.28-8.29A1.43,1.43,0,0,0,460.52,669Z"/><path class="cls-8" d="M431.64,688.39H421a1.45,1.45,0,0,0-1.39,1.06l-2.28,8.29a1.44,1.44,0,0,0,1.39,1.82h10.69a1.43,1.43,0,0,0,1.39-1.06l2.28-8.29A1.44,1.44,0,0,0,431.64,688.39Z"/><path class="cls-8" d="M455.31,688.39H444.62a1.46,1.46,0,0,0-1.39,1.06L441,697.74a1.43,1.43,0,0,0,1.38,1.82H453a1.43,1.43,0,0,0,1.39-1.06l2.28-8.29A1.44,1.44,0,0,0,455.31,688.39Z"/><path class="cls-2" d="M699,433.88s.48,6.65,5.15,11.1,20.87-4.51,4-23.37"/><path class="cls-20" d="M392.69,328.22s-31.49,3-46.78-5.55-11.11-55.16-11.11-55.16"/><path class="cls-21" d="M445.05,532.2s-15,26.82-28.8,27.26-40.32-30.19-40.32-30.19"/><path class="cls-16" d="M644.28,349.76s4.34,53.08,7.28,62.3,20.31,41.3,20.31,41.3"/><path class="cls-22" d="M586.23,201.69s35.72,32.57,47.89,37.79,42.29,4.46,42.29,4.46"/><path class="cls-22" d="M695.32,244s33.39-1.73,45.77-18.64c4.86-6.65,18.67-46.73,18.67-46.73"/><path class="cls-21" d="M465.53,529.27s27.85,6.51,49.67-30.08c7-11.7-12.05-58.52-12.05-58.52"/><path class="cls-20" d="M411.36,327.38c1.3-.43,37.12-.8,45.71-6.7s37.61-43.21,37.61-43.21"/><path class="cls-2" d="M436.05,538.57A239.44,239.44,0,0,1,432.33,563c-.13.61.8.87.93.26A239,239,0,0,0,437,538.57c.06-.62-.9-.62-1,0Z"/><path class="cls-2" d="M495.94,535.89l1.47-.47c.59-.19.34-1.13-.26-.94l-1.47.48c-.59.19-.34,1.13.26.93Z"/><path class="cls-2" d="M714.91,467.36a47.13,47.13,0,0,0,6.93,5,.48.48,0,0,0,.49-.83,45.64,45.64,0,0,1-6.73-4.83c-.47-.4-1.16.28-.69.68Z"/><path class="cls-2" d="M369.37,329.94a32.91,32.91,0,0,0-.57,10.38c.07.62,1,.62,1,0a32.14,32.14,0,0,1,.53-10.12c.13-.61-.8-.87-.93-.26Z"/><path class="cls-2" d="M432.48,339.34a4.13,4.13,0,0,1,2.76-.59c.61.09.87-.84.26-.93a5.11,5.11,0,0,0-3.5.69c-.53.32-.05,1.16.48.83Z"/><path class="cls-2" d="M651,242.57a37.26,37.26,0,0,0-1,12.71c0,.62,1,.62,1,0a36.76,36.76,0,0,1,1-12.45.48.48,0,0,0-.93-.26Z"/><path class="cls-2" d="M714.85,254.64l3-2c.52-.34,0-1.18-.49-.84l-3,2c-.52.34,0,1.18.49.84Z"/><path class="cls-2" d="M581.57,191.23a14,14,0,0,0-.9,9.47.48.48,0,0,0,.93-.25,13,13,0,0,1,.81-8.74c.25-.56-.58-1.05-.84-.48Z"/><path class="cls-2" d="M762,167.4c2.4,2,1.78,5.22,1.14,7.94-.14.6.79.86.93.25.72-3.05,1.29-6.59-1.39-8.87-.47-.4-1.16.28-.68.68Z"/><path class="cls-2" d="M499,266.48a11.45,11.45,0,0,1-.36,6.58c-.21.59.73.84.93.26a12.37,12.37,0,0,0,.36-7.1c-.14-.6-1.07-.35-.93.26Z"/><path class="cls-2" d="M335,262.31a10.55,10.55,0,0,1,4.7-3.54c.58-.22.33-1.16-.25-.94a11.73,11.73,0,0,0-5.28,4c-.37.5.46,1,.83.49Z"/><path class="cls-2" d="M493.93,435.93a6.4,6.4,0,0,1,4.63,1.24c.5.37,1-.47.49-.83a7.15,7.15,0,0,0-5.12-1.38c-.61.07-.62,1,0,1Z"/><path class="cls-2" d="M374,526.2l2.41-5.48c.25-.56-.58-1.05-.83-.49l-2.41,5.49c-.25.56.58,1,.83.48Z"/><path class="cls-2" d="M643.1,348a9.22,9.22,0,0,1,4.77-3.81c.58-.21.33-1.14-.26-.94a10.36,10.36,0,0,0-5.35,4.27c-.33.52.51,1,.84.48Z"/><path class="cls-15" d="M526.93,812.2c0,15.15,9.33,28.36,23.17,35.39a9.66,9.66,0,0,0,4.37,1.07h37a9.66,9.66,0,0,0,4.37-1.07c13.84-7,23.17-20.24,23.17-35.39v-.12a9.33,9.33,0,0,0-9.4-9.15h-73.3a9.33,9.33,0,0,0-9.4,9.15Z"/></svg>