<?xml version="1.0" encoding="utf-8"?>
<!-- Generator: Adobe Illustrator 25.3.1, SVG Export Plug-In . SVG Version: 6.00 Build 0)  -->
<svg version="1.1" id="Layer_1" xmlns="http://www.w3.org/2000/svg" xmlns:xlink="http://www.w3.org/1999/xlink" x="0px" y="0px"
	 viewBox="0 0 400 106" style="enable-background:new 0 0 400 106;" xml:space="preserve">
<style type="text/css">
	.st0{fill:none;stroke:#1DA1F2;stroke-width:10;}
	.st1{fill-opacity:0.87;}
</style>
<path class="st0" d="M54.3,23.4L24,70.8c-0.7,1.1-1.1,2.4-0.9,3.6c1,7.1,7.2,7.1,10.8,5.7c0.9-0.4,1.5-1.1,2-1.9l23.5-37l24.7,36.8
	c0.6,0.9,1.4,1.7,2.5,2.1c6.1,2.3,9.4-2.1,10.3-5.7c0.3-1.3-0.1-2.6-0.8-3.7L65.2,23.4C60.6,18.3,56,21.3,54.3,23.4z"/>
<path class="st1" d="M137,58.8h-8.5l-1.5,4.8h-6.6l9.4-25.6h5.8l9.5,25.6h-6.6L137,58.8z M130,54h5.5l-2.8-8.9L130,54z M163.8,56.8
	c0-0.9-0.3-1.6-1-2.1c-0.6-0.5-1.8-1-3.4-1.6c-1.6-0.5-2.9-1.1-3.9-1.6c-3.3-1.6-5-3.9-5-6.7c0-1.4,0.4-2.7,1.2-3.7
	c0.8-1.1,2-1.9,3.5-2.5c1.5-0.6,3.2-0.9,5.1-0.9c1.8,0,3.5,0.3,4.9,1c1.5,0.7,2.6,1.6,3.4,2.8c0.8,1.2,1.2,2.6,1.2,4.1h-6.2
	c0-1-0.3-1.9-1-2.4c-0.6-0.6-1.5-0.9-2.6-0.9c-1.1,0-2,0.2-2.6,0.7c-0.6,0.5-0.9,1.1-0.9,1.8c0,0.7,0.4,1.3,1.1,1.8
	c0.7,0.5,1.9,1.1,3.7,1.7c1.8,0.6,3.2,1.2,4.4,1.8c2.8,1.6,4.1,3.8,4.1,6.6c0,2.2-0.8,4-2.5,5.3c-1.7,1.3-4,1.9-6.9,1.9
	c-2.1,0-4-0.4-5.6-1.1c-1.7-0.8-2.9-1.8-3.8-3.1c-0.8-1.3-1.3-2.8-1.3-4.5h6.2c0,1.4,0.4,2.4,1.1,3c0.7,0.6,1.9,1,3.5,1
	c1,0,1.8-0.2,2.4-0.7C163.5,58.2,163.8,57.6,163.8,56.8z M197.4,54.9c-0.1,1.8-0.6,3.4-1.4,4.7c-0.9,1.4-2.1,2.4-3.7,3.2
	c-1.6,0.8-3.4,1.1-5.4,1.1c-3.4,0-6-1.1-7.9-3.3c-1.9-2.2-2.9-5.3-2.9-9.3v-1.3c0-2.5,0.4-4.7,1.3-6.6c0.9-1.9,2.1-3.3,3.8-4.4
	c1.6-1,3.5-1.5,5.7-1.5c3.1,0,5.6,0.8,7.5,2.5c1.9,1.6,3,3.9,3.2,6.8h-6.2c0-1.6-0.4-2.7-1.2-3.4c-0.7-0.7-1.9-1-3.4-1
	c-1.5,0-2.7,0.6-3.4,1.7c-0.7,1.1-1.1,3-1.1,5.5v1.8c0,2.7,0.3,4.7,1,5.9c0.7,1.2,1.9,1.8,3.6,1.8c1.4,0,2.5-0.3,3.3-1
	c0.8-0.7,1.1-1.7,1.2-3.2H197.4z M219.8,52.7h-9.7v6.1h11.5v4.7H204V38h17.7v4.8h-11.5v5.4h9.7V52.7z M249.1,63.6h-6.1l-9.1-15.9
	v15.9h-6.2V38h6.2l9.1,15.9V38h6.2V63.6z M256.6,63.6V38h8.2c2.3,0,4.3,0.5,6.1,1.5c1.8,1,3.2,2.5,4.2,4.3c1,1.9,1.5,4,1.5,6.3v1.2
	c0,2.3-0.5,4.4-1.5,6.3c-1,1.9-2.4,3.3-4.2,4.4c-1.8,1-3.8,1.6-6,1.6H256.6z M262.8,42.7v16.1h2.1c1.8,0,3.1-0.6,4.1-1.9
	c0.9-1.3,1.4-3.1,1.4-5.6v-1.1c0-2.5-0.5-4.3-1.4-5.6c-0.9-1.3-2.3-1.9-4.1-1.9H262.8z M297.6,58.8h-8.5l-1.5,4.8h-6.6l9.4-25.6h5.8
	l9.5,25.6h-6.6L297.6,58.8z M290.6,54h5.5l-2.8-8.9L290.6,54z M332.6,63.6h-6.1l-9.1-15.9v15.9h-6.2V38h6.2l9.1,15.9V38h6.2V63.6z
	 M359.7,42.7H352v20.8h-6.2V42.7h-7.5V38h21.4V42.7z"/>
</svg>
